<svg width="22" height="14" viewBox="0 0 22 14" fill="none" xmlns="http://www.w3.org/2000/svg">
<path d="M14.3169 7.10435L21.182 11.4444V2.58105L14.3169 7.10435Z" fill="white"/>
<path d="M0.818115 2.58105V11.4444L7.68324 7.10435L0.818115 2.58105Z" fill="white"/>
<path d="M19.909 0H2.09075C1.45566 0 0.951656 0.473457 0.856201 1.0831L10.9999 7.76622L21.1436 1.0831C21.0481 0.473457 20.5441 0 19.909 0Z" fill="white"/>
<path d="M13.1508 7.87285L11.3499 9.05904C11.243 9.12904 11.1221 9.16341 10.9999 9.16341C10.8777 9.16341 10.7568 9.12904 10.6499 9.05904L8.84898 7.87158L0.858765 12.9256C0.956765 13.5302 1.45822 13.9998 2.09077 13.9998H19.909C20.5416 13.9998 21.043 13.5302 21.141 12.9256L13.1508 7.87285Z" fill="white"/>
</svg>
