<svg width="59" height="85" viewBox="0 0 59 85" fill="none" xmlns="http://www.w3.org/2000/svg">
<path d="M29.7466 0.737793C13.7548 0.737793 0.744141 13.7484 0.744141 29.7403C0.744141 49.8403 29.7751 84.1753 29.7751 84.1753C29.7751 84.1753 58.7491 48.8518 58.7491 29.7403C58.7491 13.7484 45.739 0.737793 29.7466 0.737793ZM38.4973 38.2322C36.0844 40.6446 32.9158 41.851 29.7466 41.851C26.578 41.851 23.4083 40.6446 20.9965 38.2322C16.1712 33.4075 16.1712 25.5567 20.9965 20.7314C23.333 18.3939 26.441 17.1065 29.7466 17.1065C33.0522 17.1065 36.1598 18.3944 38.4973 20.7314C43.3225 25.5567 43.3225 33.4075 38.4973 38.2322Z" fill="#0D3146"/>
</svg>
