<svg width="24" height="24" viewBox="0 0 24 24" fill="none" xmlns="http://www.w3.org/2000/svg">
<path d="M11.7967 0.738281C7.48431 0.738281 3.97583 4.24676 3.97583 8.55917C3.97583 13.9794 11.8044 23.2383 11.8044 23.2383C11.8044 23.2383 19.6176 13.7129 19.6176 8.55917C19.6176 4.24676 16.1093 0.738281 11.7967 0.738281ZM14.1564 10.8491C13.5058 11.4997 12.6513 11.825 11.7967 11.825C10.9423 11.825 10.0875 11.4997 9.43713 10.8491C8.13594 9.54808 8.13594 7.43101 9.43713 6.12982C10.0672 5.49948 10.9053 5.15231 11.7967 5.15231C12.6881 5.15231 13.5261 5.49962 14.1564 6.12982C15.4576 7.43101 15.4576 9.54808 14.1564 10.8491Z" fill="white"/>
</svg>
