<svg width="24" height="24" viewBox="0 0 24 24" fill="none" xmlns="http://www.w3.org/2000/svg">
<path d="M20.5279 15.2102L18.0106 12.6982C17.1116 11.8011 15.5833 12.16 15.2237 13.3262C14.954 14.1337 14.055 14.5822 13.2459 14.4028C11.4478 13.9542 9.02049 11.6217 8.57098 9.73771C8.30128 8.93026 8.84069 8.03313 9.6498 7.76403C10.8185 7.40518 11.1781 5.88007 10.2791 4.98294L7.76187 2.47099C7.04266 1.843 5.96384 1.843 5.33453 2.47099L3.62641 4.17553C1.91828 5.96978 3.80621 10.7245 8.03158 14.941C12.2569 19.1575 17.0217 21.1312 18.8197 19.3369L20.5279 17.6324C21.1572 16.9147 21.1572 15.8382 20.5279 15.2102Z" fill="white"/>
</svg>
