<svg width="207" height="32" fill="none" xmlns="http://www.w3.org/2000/svg"><g clip-path="url(#clip0)"><path d="M12.216 7.316H8.67v-.792c.02-.74-.181-1.47-.578-2.097a2.14 2.14 0 00-1.94-.885 2.299 2.299 0 00-1.19.275 2.42 2.42 0 00-.732.69c-.19.315-.32.662-.386 1.024-.062.395-.09.794-.084 1.193 0 .49 0 .89.052 1.217.03.303.12.597.263.866.149.264.358.489.61.657a5.56 5.56 0 001.105.555l2.725 1.076a6.723 6.723 0 011.921 1.058 4.64 4.64 0 011.156 1.398 6.61 6.61 0 01.522 1.892c.1.8.147 1.604.14 2.41.009.973-.097 1.944-.314 2.893a6.114 6.114 0 01-1.015 2.27 4.978 4.978 0 01-1.922 1.523c-.91.398-1.899.59-2.894.564a6.453 6.453 0 01-2.415-.466 5.766 5.766 0 01-1.922-1.249 6.098 6.098 0 01-1.278-1.864 5.659 5.659 0 01-.47-2.33v-1.267h3.543v1.109c-.005.63.198 1.243.578 1.747.385.522 1.024.783 1.964.783a3.17 3.17 0 001.41-.26c.33-.167.603-.427.784-.746a2.69 2.69 0 00.334-1.16 21.1 21.1 0 00.052-1.51 14.656 14.656 0 00-.09-1.58 2.837 2.837 0 00-.277-1.007 2.017 2.017 0 00-.648-.624 8.378 8.378 0 00-1.067-.522l-2.551-1.053c-1.537-.625-2.57-1.454-3.092-2.48a8.426 8.426 0 01-.79-3.862A8.847 8.847 0 01.56 4.124a5.968 5.968 0 011.156-2.148 5.248 5.248 0 011.88-1.44A6.265 6.265 0 016.29 0a5.977 5.977 0 012.43.466 6.2 6.2 0 011.907 1.305 5.313 5.313 0 011.588 3.821v1.724zM21.778 32v-8.7h-.07c-.362.545-.844 1-1.41 1.333a3.712 3.712 0 01-1.88.466 3.784 3.784 0 01-2.01-.466 3.743 3.743 0 01-1.17-1.147 3.434 3.434 0 01-.47-1.454 26.254 26.254 0 01-.104-2.796V12.55c-.013-.779.034-1.558.141-2.33a4.574 4.574 0 01.47-1.458c.583-1.11 1.62-1.664 3.11-1.664.39-.006.78.04 1.156.14.309.085.603.214.874.382.255.164.49.356.7.573l.663.709V7.316h3.566v24.698L21.778 32zm-3.529-12.517c-.01.51.116 1.014.367 1.459a1.458 1.458 0 001.381.625 1.682 1.682 0 001.273-.541c.344-.373.527-.865.508-1.37v-6.827a2.45 2.45 0 00-.47-1.58 1.586 1.586 0 00-1.292-.606 1.467 1.467 0 00-1.33.658 3.185 3.185 0 00-.437 1.747v6.435zM38.942 7.316v17.577h-3.566v-1.7h-.071a5.067 5.067 0 01-1.344 1.37 3.49 3.49 0 01-2.01.54 4.175 4.175 0 01-1.33-.228 3.063 3.063 0 01-1.19-.746 3.723 3.723 0 01-.835-1.333 5.52 5.52 0 01-.315-1.994V7.316h3.566v12.167c-.026.548.14 1.088.47 1.529a1.587 1.587 0 001.297.554 1.514 1.514 0 001.41-.624c.29-.556.422-1.18.384-1.804V7.316h3.534zm9.684 17.578V23.09h-.071a6.637 6.637 0 01-1.41 1.491 3.4 3.4 0 01-2.01.522 4.571 4.571 0 01-1.279-.19 3.37 3.37 0 01-1.24-.714 3.386 3.386 0 01-.94-1.398 6.41 6.41 0 01-.37-2.376 12.33 12.33 0 01.248-2.62 4.134 4.134 0 01.907-1.886 3.809 3.809 0 011.706-1.096 8.696 8.696 0 012.743-.377h.386c.13 0 .258.012.385.037.138.025.278.035.418.033.176.002.352.014.527.037v-1.831a2.653 2.653 0 00-.386-1.487 1.535 1.535 0 00-1.41-.591 2.007 2.007 0 00-1.273.466c-.403.332-.67.8-.751 1.314h-3.459a5.634 5.634 0 011.607-3.812 5.124 5.124 0 011.682-1.105 5.774 5.774 0 012.2-.4 6.206 6.206 0 012.1.35 4.743 4.743 0 011.71 1.038 5.112 5.112 0 011.127 1.757c.293.776.435 1.6.419 2.428v12.214h-3.566zm0-7.559a5.818 5.818 0 00-.982-.093 3.527 3.527 0 00-1.974.536c-.545.359-.822 1.011-.822 1.957-.032.58.133 1.155.47 1.631a1.642 1.642 0 001.367.625 1.761 1.761 0 001.41-.592 2.465 2.465 0 00.507-1.664l.024-2.4zm6.183 7.558V7.316h3.566V9.18a10.95 10.95 0 012.133-1.528 5.503 5.503 0 012.59-.555v3.728a2.92 2.92 0 00-1.086-.21c-.41.007-.816.071-1.208.191a3.14 3.14 0 00-1.17.643c-.391.328-.7.74-.902 1.207a4.108 4.108 0 00-.352 1.8v10.437h-3.571zm20.03-7.455H67.79v2.395a1.68 1.68 0 00.47 1.281 1.79 1.79 0 001.278.466c.672 0 1.123-.195 1.344-.591.212-.363.35-.764.404-1.18h3.561a5.018 5.018 0 01-.33 2.01 5.05 5.05 0 01-1.103 1.719 4.977 4.977 0 01-1.687 1.16 6.1 6.1 0 01-5.05-.275 4.716 4.716 0 01-1.56-1.46 4.67 4.67 0 01-.748-1.993 12.824 12.824 0 01-.14-1.976v-5.783a12.69 12.69 0 01.14-1.976c.095-.71.353-1.39.756-1.986A4.682 4.682 0 0166.692 7.8a5.51 5.51 0 012.847-.695c.76-.01 1.514.133 2.218.42a4.955 4.955 0 011.696 1.142 5.652 5.652 0 011.41 3.919l-.024 4.85zm-7.048-2.796h3.5v-1.986a2.137 2.137 0 00-.47-1.51 1.888 1.888 0 00-2.55 0 2.137 2.137 0 00-.47 1.51l-.01 1.986zm9.881 10.251V.21h5.732c4.198 0 6.295 2.416 6.292 7.247a9.061 9.061 0 01-.682 3.728 5.243 5.243 0 01-2.391 2.46l3.843 11.268h-3.759l-3.336-10.56h-2.133v10.541h-3.566zm3.566-21.356v7.698h2.03c.514.02 1.027-.07 1.504-.261.356-.16.657-.42.869-.746.202-.371.333-.778.385-1.197.076-.545.112-1.095.108-1.645a11.322 11.322 0 00-.108-1.65 3.29 3.29 0 00-.418-1.23c-.442-.65-1.281-.972-2.519-.97h-1.85zm21.43 13.901h-7.047v2.395a1.68 1.68 0 00.47 1.281 1.79 1.79 0 001.277.466c.677 0 1.123-.195 1.344-.591.212-.363.35-.764.404-1.18h3.566a5.033 5.033 0 01-3.124 4.889 5.573 5.573 0 01-2.204.42 5.5 5.5 0 01-2.847-.695 4.707 4.707 0 01-1.57-1.457 4.659 4.659 0 01-.756-1.996 12.822 12.822 0 01-.14-1.976v-5.783a12.69 12.69 0 01.14-1.976 4.636 4.636 0 01.758-1.987 4.683 4.683 0 011.568-1.447 5.5 5.5 0 012.847-.694 5.68 5.68 0 012.218.419c.64.258 1.218.647 1.696 1.142a5.66 5.66 0 011.41 3.919l-.01 4.85zm-7.047-2.796h3.495v-1.985a2.137 2.137 0 00-.47-1.51 1.888 1.888 0 00-2.55 0 2.137 2.137 0 00-.47 1.51l-.005 1.985zm16.134-2.405a1.734 1.734 0 00-.14-.738 1.772 1.772 0 00-.437-.613 1.89 1.89 0 00-1.241-.466 1.601 1.601 0 00-1.292.536c-.302.34-.469.777-.47 1.23.005.325.088.645.244.932.31.418.754.72 1.26.853l2.095.829c1.331.51 2.246 1.204 2.744 2.083a5.68 5.68 0 01.752 2.875 5.26 5.26 0 01-.399 2.065 5.583 5.583 0 01-1.105 1.682 4.96 4.96 0 01-1.663 1.193c-.674.284-1.4.427-2.133.42a5.15 5.15 0 01-3.632-1.352 4.954 4.954 0 01-1.189-1.645 5.728 5.728 0 01-.47-2.33h3.355c.069.481.242.942.508 1.351a1.53 1.53 0 001.409.625c.507.002.997-.177 1.382-.504a1.698 1.698 0 00.61-1.398 2.04 2.04 0 00-.399-1.225 3.035 3.035 0 00-1.41-.9l-1.71-.624a5.841 5.841 0 01-2.64-1.864 4.734 4.734 0 01-.94-3.001 5.02 5.02 0 01.396-2.026 5.071 5.071 0 011.178-1.702 4.693 4.693 0 011.649-1.067 5.604 5.604 0 012.03-.364 5.307 5.307 0 012.011.383c.599.244 1.14.611 1.588 1.076a5.11 5.11 0 011.048 1.645c.259.645.389 1.333.385 2.027l-3.374.014zm5.836-8.509V.209h3.566v3.519h-3.566zm0 21.147V7.315h3.566v17.578l-3.566-.018zm13.602.018V23.3c-.235.251-.469.466-.667.708a3.59 3.59 0 01-.7.573c-.27.17-.565.299-.874.382a4.39 4.39 0 01-1.151.14c-1.494 0-2.528-.56-3.11-1.668a4.613 4.613 0 01-.47-1.454 15.13 15.13 0 01-.141-2.33v-6.682c0-1.273.037-2.21.103-2.796a3.34 3.34 0 01.505-1.498 3.37 3.37 0 011.14-1.103 3.589 3.589 0 011.992-.466 3.697 3.697 0 011.879.466c.567.33 1.05.787 1.41 1.333h.075V.209h3.561v24.698l-3.552-.014zm-3.533-5.722a3.198 3.198 0 00.418 1.733 1.469 1.469 0 001.33.662 1.579 1.579 0 001.292-.596c.345-.452.52-1.01.493-1.575v-6.846a1.937 1.937 0 00-.507-1.365 1.702 1.702 0 00-1.278-.536 1.473 1.473 0 00-1.381.624 2.807 2.807 0 00-.367 1.454v6.445zm20.345-1.733h-7.048v2.395a1.67 1.67 0 00.47 1.281c.347.317.806.485 1.278.466.676 0 1.123-.195 1.344-.591a3.16 3.16 0 00.404-1.18h3.552a5.07 5.07 0 01-1.433 3.728 5.014 5.014 0 01-1.678 1.16 6.1 6.1 0 01-5.051-.274 4.703 4.703 0 01-1.569-1.457 4.654 4.654 0 01-.756-1.996 12.81 12.81 0 01-.141-1.976v-5.783a12.81 12.81 0 01.141-1.976 4.643 4.643 0 01.757-1.987 4.69 4.69 0 011.568-1.447 5.504 5.504 0 012.848-.694c.76-.01 1.514.132 2.218.419a4.906 4.906 0 011.686 1.142 5.659 5.659 0 011.41 3.914v4.856zm-7.048-2.796h3.496v-1.985a2.14 2.14 0 00-.47-1.51 1.888 1.888 0 00-2.551 0 2.13 2.13 0 00-.47 1.51l-.005 1.985zm9.67 10.251V7.316h3.566v1.696h.07a4.924 4.924 0 011.344-1.365 3.49 3.49 0 012.011-.54c.452 0 .9.077 1.325.228.449.151.856.405 1.189.74.371.383.658.839.841 1.338.227.64.333 1.316.315 1.995v13.485h-3.567V12.722a2.317 2.317 0 00-.469-1.524 1.574 1.574 0 00-1.26-.555 1.51 1.51 0 00-1.409.624 3.485 3.485 0 00-.381 1.804v11.822h-3.575zm13.597-17.577v-5.34h3.567v5.34h2.198v2.773h-2.198v9.744c-.014.328.027.655.122.97a.97.97 0 00.399.521c.208.12.441.19.681.205.268 0 .602.038.996.038v3.327h-1.466a4.794 4.794 0 01-2.043-.382 3.63 3.63 0 01-1.311-.97 3.837 3.837 0 01-.719-1.337 4.925 4.925 0 01-.226-1.435V10.09h-1.785V7.315h1.785zm7.128-3.588V.209h3.566v3.519h-3.566zm0 21.147V7.315h3.566v17.578l-3.566-.018zm13.25.018V23.09h-.071a6.52 6.52 0 01-1.409 1.491 3.39 3.39 0 01-2.011.522 4.57 4.57 0 01-1.278-.191 3.549 3.549 0 01-2.199-2.116 6.495 6.495 0 01-.366-2.376c-.012-.88.07-1.757.244-2.62a4.133 4.133 0 01.907-1.886 3.79 3.79 0 011.715-1.09 8.666 8.666 0 012.762-.369h.381c.129 0 .258.012.385.037.14.025.281.035.423.033.175.002.349.014.522.037v-1.84a2.649 2.649 0 00-.386-1.487 1.532 1.532 0 00-1.409-.592 2.01 2.01 0 00-1.278.466c-.404.333-.671.8-.752 1.314h-3.463a5.638 5.638 0 011.612-3.812 5.053 5.053 0 011.677-1.09 5.8 5.8 0 012.204-.4 6.193 6.193 0 012.095.349 4.76 4.76 0 011.715 1.039 5.109 5.109 0 011.128 1.743c.293.775.435 1.6.418 2.428v12.213h-3.566zm0-7.558a5.804 5.804 0 00-.977-.103 3.534 3.534 0 00-1.978.536c-.545.357-.818 1.01-.818 1.957a2.543 2.543 0 00.47 1.631 1.627 1.627 0 001.362.625 1.762 1.762 0 001.41-.592 2.464 2.464 0 00.507-1.664l.024-2.39zM190.579.21h3.566v19.725c-.056.486.075.975.366 1.37.398.299.883.462 1.382.466v3.332a11.593 11.593 0 01-2.199-.191 3.896 3.896 0 01-1.682-.746 3.228 3.228 0 01-1.062-1.477 6.986 6.986 0 01-.371-2.512V.21z" fill="#fff"/><path d="M207 19.33h-6.437v6.384H207V19.33z" fill="#E15353"/></g><defs><clipPath id="clip0"><path fill="#fff" d="M0 0h207v32H0z"/></clipPath></defs></svg>