<svg width="207" height="32" viewBox="0 0 207 32" fill="none" xmlns="http://www.w3.org/2000/svg">
<g clip-path="url(#clip0)">
<path d="M12.2163 7.31615H8.66889V6.52396C8.6886 5.78378 8.48756 5.0543 8.09096 4.42697C7.8752 4.12254 7.58197 3.88024 7.24111 3.72471C6.90025 3.56919 6.52394 3.506 6.15046 3.54158C5.7364 3.52455 5.32547 3.61959 4.96172 3.81652C4.67136 3.99292 4.42163 4.22789 4.22874 4.50619C4.03873 4.82194 3.90818 5.16932 3.84346 5.53139C3.7811 5.92593 3.7528 6.32503 3.75889 6.72434C3.75889 7.21363 3.75889 7.61439 3.81057 7.94059C3.8409 8.24367 3.93026 8.53803 4.07369 8.80734C4.22263 9.07076 4.43185 9.29582 4.6845 9.4644C5.03054 9.68954 5.4009 9.87554 5.78867 10.0189L8.51384 11.0954C9.20868 11.3408 9.85796 11.6982 10.4355 12.1532C10.9097 12.5394 11.3024 13.0144 11.5914 13.5512C11.8585 14.1528 12.0343 14.7904 12.1129 15.4431C12.2127 16.2423 12.2598 17.0471 12.2539 17.8523C12.2619 18.8258 12.1563 19.7969 11.9391 20.7462C11.7602 21.5633 11.4148 22.3356 10.9242 23.0156C10.4221 23.6748 9.76136 24.1987 9.00249 24.5394C8.09164 24.9374 7.10312 25.1299 6.10817 25.1033C5.28035 25.1042 4.46019 24.9459 3.69311 24.6373C2.97448 24.3532 2.32091 23.9284 1.77139 23.3884C1.23233 22.8512 0.798932 22.2191 0.493385 21.5244C0.173446 20.7891 0.0133475 19.9952 0.0235281 19.1944V17.9269H3.56625V19.036C3.56114 19.6655 3.76413 20.2793 4.14417 20.7835C4.52945 21.3054 5.16846 21.5663 6.10817 21.5663C6.59201 21.5881 7.07438 21.4987 7.51774 21.3054C7.84761 21.1389 8.12058 20.8795 8.3024 20.5598C8.50019 20.2028 8.61422 19.8062 8.636 19.3995C8.66889 18.9335 8.68768 18.4442 8.68768 17.8896C8.68639 17.3618 8.65659 16.8345 8.59841 16.3099C8.5692 15.9603 8.47523 15.6191 8.32119 15.3033C8.15525 15.0494 7.9336 14.8359 7.67279 14.6789C7.33021 14.48 6.97379 14.3056 6.60622 14.157L4.0549 13.1038C2.51847 12.4794 1.48478 11.6499 0.963241 10.6247C0.398043 9.41632 0.127629 8.09292 0.173882 6.76162C0.168327 5.86826 0.298206 4.97914 0.559165 4.12408C0.791908 3.33699 1.18534 2.60577 1.71501 1.97583C2.22244 1.35985 2.86534 0.867289 3.59444 0.5359C4.44185 0.159924 5.36337 -0.0231829 6.29141 3.85172e-06C7.12515 -0.0156601 7.95286 0.143123 8.72057 0.466001C9.43345 0.778208 10.0806 1.22086 10.6282 1.77079C11.1352 2.27143 11.5367 2.86711 11.8094 3.52313C12.082 4.17915 12.2203 4.88241 12.2163 5.59197V7.31615Z" fill="white"/>
<path d="M21.7779 32.0001V23.3H21.7074C21.3462 23.845 20.864 24.3009 20.2979 24.6327C19.7244 24.9514 19.0756 25.1123 18.4184 25.0987C17.7174 25.1327 17.0208 24.9712 16.4074 24.6327C15.9369 24.341 15.5374 23.9495 15.2375 23.4864C14.9735 23.0426 14.8129 22.5458 14.7676 22.0325C14.6835 21.1029 14.649 20.1696 14.6643 19.2365V12.5494C14.6511 11.7703 14.6983 10.9914 14.8052 10.2194C14.8786 9.71064 15.0374 9.21761 15.2751 8.76088C15.8577 7.65181 16.8945 7.09727 18.3855 7.09727C18.7755 7.09078 19.1645 7.13783 19.5414 7.23707C19.8496 7.32245 20.1439 7.45113 20.4153 7.61919C20.6703 7.78267 20.9053 7.97502 21.1154 8.19236L21.7779 8.90068V7.31629H25.3441V32.0141L21.7779 32.0001ZM18.2493 19.4835C18.2382 19.9934 18.3647 20.4969 18.6158 20.942C18.7663 21.1616 18.9747 21.336 19.2183 21.4461C19.4619 21.5562 19.7313 21.5979 19.9972 21.5665C20.236 21.5721 20.4734 21.5267 20.6931 21.4335C20.9127 21.3402 21.1097 21.2012 21.2705 21.0259C21.6144 20.653 21.7967 20.1609 21.7779 19.6559V12.829C21.8085 12.2646 21.6427 11.7069 21.3081 11.2493C21.1554 11.0552 20.959 10.8993 20.7346 10.7941C20.5102 10.6889 20.2641 10.6373 20.0159 10.6435C19.7553 10.6246 19.4942 10.6757 19.2603 10.7913C19.0263 10.9069 18.8281 11.0828 18.6863 11.3006C18.3753 11.8297 18.2237 12.4361 18.2493 13.048V19.4835Z" fill="white"/>
<path d="M38.9417 7.31592V24.8933H35.3755V23.1924H35.305C34.9492 23.7298 34.4931 24.1948 33.9613 24.5625C33.3627 24.9428 32.6606 25.1315 31.9503 25.103C31.4974 25.0995 31.0483 25.0223 30.6206 24.8747C30.1713 24.7211 29.7643 24.4658 29.4318 24.1291C29.0608 23.7487 28.7757 23.2944 28.5955 22.7963C28.3688 22.1561 28.2621 21.4802 28.2807 20.8019V7.31592H31.8469V19.4831C31.821 20.0311 31.987 20.5711 32.3168 21.0116C32.4751 21.1969 32.6746 21.3435 32.8996 21.4397C33.1246 21.5359 33.3689 21.5791 33.6136 21.5661C33.8835 21.5981 34.1571 21.557 34.4053 21.447C34.6535 21.337 34.867 21.1624 35.0231 20.9417C35.3131 20.3859 35.4462 19.7628 35.4084 19.1383V7.31592H38.9417Z" fill="white"/>
<path d="M48.6255 24.8937V23.0902H48.555C48.1659 23.6567 47.6903 24.1598 47.1454 24.5814C46.5471 24.9607 45.8434 25.1433 45.1345 25.1034C44.7014 25.1005 44.2711 25.0362 43.8564 24.9123C43.3961 24.7658 42.973 24.5226 42.616 24.1993C42.1894 23.819 41.8662 23.3382 41.6763 22.8013C41.4037 22.0392 41.2777 21.233 41.3051 20.4247C41.2948 19.5455 41.3783 18.6677 41.5541 17.8058C41.689 17.1103 42.0012 16.4605 42.461 15.9186C42.9189 15.407 43.5085 15.0285 44.1666 14.8235C45.0547 14.5519 45.9813 14.4245 46.9105 14.446H47.2958C47.4252 14.4457 47.5542 14.4582 47.6811 14.4833C47.8191 14.5076 47.9591 14.5185 48.0993 14.5159C48.2753 14.5175 48.451 14.53 48.6255 14.5532V12.7218C48.6465 12.1996 48.5126 11.6827 48.2402 11.2353C48.0779 11.0231 47.8623 10.8567 47.615 10.7529C47.3677 10.6491 47.0972 10.6113 46.8306 10.6435C46.3644 10.6466 45.9139 10.8115 45.5573 11.1095C45.1539 11.4422 44.8866 11.9094 44.8056 12.4236H41.3474C41.3793 10.9975 41.9533 9.63598 42.9543 8.61173C43.4356 8.13663 44.0074 7.76121 44.6364 7.50732C45.3358 7.23188 46.0829 7.09571 46.8353 7.10656C47.5506 7.10124 48.2613 7.2195 48.9356 7.45606C49.574 7.67738 50.1571 8.03171 50.6459 8.49523C51.139 8.99813 51.5228 9.59607 51.7735 10.252C52.0663 11.0279 52.2082 11.8517 52.1917 12.6799V24.8937H48.6255ZM48.6255 17.3352C48.3014 17.2764 47.9729 17.2452 47.6435 17.242C46.9466 17.222 46.2595 17.4086 45.6701 17.7779C45.1251 18.1367 44.8478 18.7891 44.8478 19.7351C44.8155 20.3156 44.981 20.8901 45.3177 21.3661C45.479 21.5706 45.6873 21.7339 45.9251 21.8425C46.1629 21.9512 46.4234 22.0019 46.685 21.9905C46.9498 22.0044 47.2143 21.9583 47.4586 21.8558C47.7028 21.7532 47.9203 21.5969 48.0946 21.3987C48.4606 20.923 48.6408 20.3322 48.602 19.7351L48.6255 17.3352Z" fill="white"/>
<path d="M54.8088 24.8934V7.31605H58.3751V9.18003C59.0216 8.58736 59.7378 8.07417 60.5082 7.65156C61.3123 7.25896 62.2013 7.06852 63.0971 7.09703V10.825C62.7522 10.6867 62.3837 10.6155 62.0117 10.6153C61.6021 10.6219 61.1956 10.6862 60.8042 10.8064C60.3721 10.9347 59.973 11.1541 59.6343 11.4494C59.243 11.7767 58.9341 12.1899 58.7321 12.6564C58.4806 13.2223 58.3602 13.837 58.3798 14.4551V24.8934H54.8088Z" fill="white"/>
<path d="M74.8388 17.4376H67.7909V19.8328C67.7753 20.0671 67.809 20.302 67.8899 20.5226C67.9708 20.7432 68.0971 20.9447 68.2608 21.1143C68.6077 21.4314 69.0674 21.599 69.5388 21.5803C70.2107 21.5803 70.6618 21.3846 70.8826 20.9885C71.0947 20.6259 71.2321 20.2252 71.2867 19.8095H74.8482C74.8768 20.4948 74.7645 21.1787 74.5181 21.8196C74.2717 22.4605 73.8965 23.045 73.4151 23.5375C72.9405 24.0366 72.3659 24.4318 71.7283 24.6978C70.9162 25.0158 70.0444 25.1559 69.1725 25.1084C68.3007 25.061 67.4496 24.8271 66.6774 24.4229C66.0521 24.0608 65.5189 23.5612 65.1189 22.9625C64.719 22.3638 64.4629 21.6821 64.3704 20.9699C64.2725 20.3158 64.2254 19.6552 64.2294 18.994V13.211C64.2254 12.5498 64.2725 11.8892 64.3704 11.2352C64.4647 10.5242 64.7233 9.84439 65.1259 9.24871C65.5284 8.65302 66.0642 8.15752 66.6915 7.80079C67.5593 7.31685 68.5437 7.07679 69.5388 7.10646C70.299 7.09654 71.0534 7.23919 71.7565 7.52585C72.396 7.78492 72.9738 8.17382 73.4527 8.66755C74.4054 9.75006 74.9091 11.1504 74.8623 12.5866L74.8388 17.4376ZM67.7909 14.6416H71.2914V12.6565C71.3338 12.1123 71.1658 11.5724 70.8215 11.1466C70.4742 10.8283 70.0187 10.6515 69.5459 10.6515C69.073 10.6515 68.6175 10.8283 68.2702 11.1466C67.9259 11.5724 67.7579 12.1123 67.8003 12.6565L67.7909 14.6416Z" fill="white"/>
<path d="M77.672 24.8933V0.209473H83.4042C87.6016 0.209473 89.6988 2.62489 89.6956 7.45572C89.7339 8.73196 89.5018 10.002 89.0143 11.1837C88.5179 12.2466 87.6756 13.1132 86.6228 13.6442L90.4662 24.912H86.7073L83.3714 14.3525H81.2382V24.8933H77.672ZM81.2382 3.53669V11.235H83.268C83.7822 11.2547 84.2947 11.1658 84.7715 10.974C85.1276 10.8137 85.4295 10.5548 85.6408 10.2284C85.8434 9.85653 85.9741 9.45034 86.026 9.03079C86.1023 8.4858 86.1385 7.93602 86.1341 7.38582C86.1383 6.83408 86.1022 6.28277 86.026 5.7362C85.9699 5.30275 85.8278 4.88463 85.6079 4.50596C85.1662 3.85667 84.3267 3.53358 83.0894 3.53669H81.2382Z" fill="white"/>
<path d="M102.668 17.4377H95.6205V19.8329C95.6049 20.0672 95.6386 20.3021 95.7195 20.5227C95.8004 20.7433 95.9267 20.9448 96.0904 21.1144C96.4373 21.4315 96.897 21.5991 97.3684 21.5804C98.045 21.5804 98.4913 21.3847 98.7122 20.9886C98.9243 20.626 99.0616 20.2253 99.1163 19.8096H102.682C102.713 20.4931 102.604 21.1758 102.362 21.8164C102.119 22.4571 101.749 23.0425 101.273 23.5376C100.788 24.0377 100.204 24.4328 99.5579 24.6979C98.86 24.9855 98.11 25.1282 97.3543 25.1173C96.3591 25.1474 95.3746 24.9074 94.507 24.423C93.8777 24.0635 93.3405 23.565 92.9371 22.9661C92.5337 22.3672 92.275 21.6841 92.1812 20.9699C92.0833 20.3159 92.0362 19.6553 92.0402 18.9941V13.2111C92.0362 12.5499 92.0833 11.8893 92.1812 11.2353C92.276 10.5238 92.5353 9.84377 92.9387 9.24805C93.3421 8.65233 93.8788 8.15706 94.507 7.80086C95.3746 7.31648 96.3591 7.07639 97.3543 7.10653C98.1145 7.09661 98.8688 7.23927 99.572 7.52593C100.212 7.78389 100.79 8.17293 101.268 8.66762C102.22 9.75037 102.724 11.1506 102.678 12.5867L102.668 17.4377ZM95.6205 14.6417H99.1163V12.6566C99.1587 12.1124 98.9907 11.5725 98.6464 11.1467C98.2991 10.8284 97.8436 10.6516 97.3707 10.6516C96.8979 10.6516 96.4424 10.8284 96.0951 11.1467C95.7508 11.5725 95.5828 12.1124 95.6252 12.6566L95.6205 14.6417Z" fill="white"/>
<path d="M111.755 12.2371C111.763 11.9838 111.715 11.732 111.615 11.4988C111.515 11.2656 111.366 11.0565 111.178 10.8857C110.835 10.586 110.394 10.4203 109.937 10.4197C109.695 10.4051 109.452 10.4458 109.228 10.5387C109.004 10.6316 108.805 10.7742 108.645 10.9556C108.343 11.2954 108.176 11.7327 108.175 12.1858C108.18 12.5115 108.263 12.8312 108.419 13.1178C108.729 13.5362 109.173 13.8371 109.679 13.9706L111.774 14.8C113.105 15.3095 114.02 16.0039 114.518 16.883C115.02 17.7589 115.279 18.7509 115.27 19.7582C115.277 20.4659 115.142 21.1679 114.871 21.8226C114.608 22.4448 114.234 23.0148 113.766 23.5049C113.302 24.013 112.735 24.4194 112.103 24.6978C111.429 24.9818 110.703 25.1246 109.97 25.1172C108.628 25.156 107.323 24.6707 106.338 23.7658C105.832 23.3047 105.427 22.7447 105.149 22.1208C104.831 21.385 104.671 20.5915 104.679 19.7909H108.034C108.103 20.2723 108.276 20.7333 108.542 21.1423C108.7 21.3608 108.914 21.5338 109.161 21.6435C109.409 21.7532 109.682 21.7957 109.951 21.7667C110.458 21.7688 110.948 21.5902 111.333 21.2634C111.536 21.0931 111.698 20.8782 111.804 20.6356C111.91 20.393 111.957 20.1294 111.943 19.8654C111.946 19.425 111.806 18.9952 111.544 18.6399C111.169 18.2148 110.68 17.9031 110.134 17.7405L108.424 17.116C107.384 16.7538 106.469 16.1077 105.784 15.2521C105.137 14.386 104.806 13.328 104.844 12.251C104.834 11.5558 104.969 10.866 105.24 10.2246C105.511 9.58324 105.912 9.00404 106.418 8.52306C106.885 8.05582 107.447 7.69212 108.067 7.45593C108.715 7.21035 109.403 7.08707 110.097 7.09245C110.786 7.08813 111.469 7.21796 112.108 7.47457C112.707 7.71936 113.248 8.08607 113.696 8.55102C114.148 9.02755 114.504 9.58604 114.744 10.196C115.003 10.8408 115.133 11.5291 115.129 12.2231L111.755 12.2371Z" fill="white"/>
<path d="M117.591 3.72775V0.209473H121.157V3.72775H117.591ZM117.591 24.8747V7.31592H121.157V24.8933L117.591 24.8747Z" fill="white"/>
<path d="M131.193 24.8933V23.2996C130.958 23.5513 130.724 23.7656 130.526 24.0079C130.318 24.2275 130.083 24.42 129.826 24.5811C129.556 24.7508 129.261 24.8796 128.952 24.9632C128.576 25.0605 128.189 25.1075 127.801 25.103C126.307 25.103 125.273 24.5438 124.691 23.4348C124.454 22.979 124.296 22.4878 124.221 21.9808C124.114 21.2089 124.067 20.43 124.08 19.6509V12.9685C124.08 11.6963 124.117 10.7596 124.183 10.1725C124.229 9.64057 124.402 9.12716 124.688 8.67491C124.974 8.22266 125.365 7.84463 125.828 7.57222C126.432 7.22716 127.124 7.06515 127.82 7.10623C128.477 7.09201 129.126 7.25294 129.699 7.57222C130.266 7.90289 130.749 8.35899 131.109 8.90497H131.184V0.209473H134.745V24.9073L131.193 24.8933ZM127.66 19.1709C127.632 19.7762 127.777 20.377 128.078 20.9044C128.219 21.123 128.417 21.2999 128.651 21.4163C128.885 21.5328 129.147 21.5845 129.408 21.5661C129.655 21.5749 129.902 21.5254 130.126 21.4217C130.351 21.3181 130.547 21.1631 130.7 20.9696C131.045 20.5182 131.22 19.9607 131.193 19.3946V12.5491C131.208 12.046 131.027 11.5567 130.686 11.1837C130.523 11.0103 130.325 10.873 130.105 10.7806C129.884 10.6883 129.647 10.643 129.408 10.6478C129.142 10.6164 128.873 10.658 128.629 10.7681C128.385 10.8783 128.177 11.0526 128.027 11.2722C127.775 11.7154 127.648 12.2176 127.66 12.7261V19.1709Z" fill="white"/>
<path d="M148.005 17.4377H140.957V19.8329C140.941 20.0672 140.975 20.3021 141.056 20.5227C141.137 20.7433 141.263 20.9448 141.427 21.1144C141.774 21.4315 142.233 21.5991 142.705 21.5804C143.381 21.5804 143.828 21.3847 144.049 20.9886C144.261 20.626 144.398 20.2253 144.453 19.8096H148.005C148.032 20.4948 147.92 21.1784 147.673 21.8191C147.427 22.4599 147.052 23.0444 146.572 23.5376C146.099 24.0346 145.528 24.4295 144.894 24.6979C144.082 25.0159 143.21 25.1559 142.339 25.1085C141.467 25.061 140.616 24.8272 139.843 24.423C139.214 24.0635 138.677 23.565 138.274 22.9661C137.87 22.3672 137.612 21.6841 137.518 20.9699C137.42 20.3159 137.373 19.6553 137.377 18.9941V13.2111C137.373 12.5499 137.42 11.8893 137.518 11.2353C137.613 10.5238 137.872 9.84377 138.275 9.24805C138.679 8.65233 139.215 8.15706 139.843 7.80086C140.711 7.31648 141.696 7.07639 142.691 7.10653C143.451 7.09661 144.205 7.23927 144.909 7.52593C145.545 7.78504 146.12 8.17401 146.595 8.66762C147.546 9.74918 148.05 11.1475 148.005 12.582V17.4377ZM140.957 14.6417H144.453V12.6566C144.495 12.1124 144.327 11.5725 143.983 11.1467C143.636 10.8284 143.18 10.6516 142.707 10.6516C142.234 10.6516 141.779 10.8284 141.432 11.1467C141.087 11.5725 140.919 12.1124 140.962 12.6566L140.957 14.6417Z" fill="white"/>
<path d="M150.627 24.8934V7.31603H154.193V9.01226H154.263C154.617 8.47417 155.073 8.01024 155.607 7.64689C156.206 7.26651 156.908 7.0778 157.618 7.10633C158.07 7.10726 158.518 7.18447 158.943 7.33467C159.392 7.48612 159.799 7.73988 160.132 8.07561C160.503 8.45826 160.79 8.91385 160.973 9.41302C161.2 10.0532 161.306 10.7292 161.288 11.4075V24.8934H157.721V12.7216C157.75 12.1747 157.584 11.6352 157.252 11.1978C157.098 11.0164 156.905 10.8722 156.687 10.7761C156.468 10.68 156.231 10.6346 155.992 10.6432C155.723 10.6122 155.449 10.6539 155.201 10.7637C154.953 10.8736 154.74 11.0477 154.583 11.2677C154.296 11.8245 154.165 12.4471 154.202 13.0711V24.8934H150.627Z" fill="white"/>
<path d="M164.224 7.3164V1.97607H167.791V7.3164H169.989V10.0891H167.791V19.8331C167.777 20.1606 167.818 20.4881 167.913 20.8023C167.981 21.017 168.122 21.2015 168.312 21.3243C168.52 21.4435 168.753 21.5136 168.993 21.5293C169.261 21.5293 169.595 21.5666 169.989 21.5666V24.8938H168.523C167.822 24.9173 167.124 24.7868 166.48 24.5117C165.974 24.2915 165.526 23.96 165.169 23.5424C164.842 23.1481 164.598 22.6936 164.45 22.205C164.304 21.7401 164.228 21.2565 164.224 20.7697V10.0891H162.439V7.3164H164.224Z" fill="white"/>
<path d="M171.352 3.72775V0.209473H174.918V3.72775H171.352ZM171.352 24.8747V7.31592H174.918V24.8933L171.352 24.8747Z" fill="white"/>
<path d="M184.602 24.8933V23.0899H184.531C184.144 23.6574 183.668 24.1606 183.122 24.5811C182.524 24.961 181.82 25.1437 181.111 25.103C180.678 25.1002 180.248 25.0359 179.833 24.912C179.33 24.7444 178.872 24.4675 178.492 24.1014C178.111 23.7353 177.818 23.2894 177.634 22.7964C177.365 22.0333 177.241 21.2276 177.268 20.4198C177.256 19.5407 177.338 18.6629 177.512 17.8009C177.647 17.1053 177.959 16.4556 178.419 15.9136C178.879 15.4019 179.472 15.0249 180.134 14.8232C181.028 14.5524 181.961 14.428 182.896 14.455H183.277C183.406 14.4547 183.535 14.4672 183.662 14.4923C183.802 14.5166 183.943 14.5275 184.085 14.5249C184.26 14.5267 184.434 14.5392 184.607 14.5622V12.7215C184.628 12.1993 184.494 11.6824 184.221 11.235C184.06 11.0217 183.845 10.8545 183.597 10.7506C183.349 10.6466 183.079 10.6096 182.812 10.6432C182.344 10.6456 181.892 10.8105 181.534 11.1092C181.13 11.4419 180.863 11.9091 180.782 12.4233H177.319C177.353 10.9966 177.928 9.63521 178.931 8.61142C179.411 8.14039 179.981 7.76961 180.608 7.52099C181.309 7.24554 182.058 7.10938 182.812 7.12023C183.525 7.11526 184.235 7.23353 184.907 7.46973C185.547 7.69111 186.132 8.0454 186.622 8.5089C187.114 9.00771 187.498 9.60075 187.75 10.2517C188.043 11.0275 188.185 11.8514 188.168 12.6796V24.8933H184.602ZM184.602 17.3349C184.28 17.2732 183.953 17.2389 183.625 17.2324C182.926 17.212 182.238 17.3986 181.647 17.7683C181.102 18.1255 180.829 18.7779 180.829 19.7254C180.794 20.3062 180.96 20.8814 181.299 21.3564C181.459 21.5612 181.666 21.7247 181.903 21.8334C182.141 21.9421 182.401 21.9927 182.661 21.9809C182.926 21.9947 183.191 21.9487 183.435 21.8461C183.679 21.7436 183.897 21.5873 184.071 21.3891C184.437 20.9134 184.617 20.3225 184.578 19.7254L184.602 17.3349Z" fill="white"/>
<path d="M190.579 0.209473H194.145V19.9351C194.089 20.4212 194.22 20.9103 194.511 21.3051C194.909 21.6037 195.394 21.7671 195.893 21.7711V25.103C195.155 25.1094 194.419 25.0454 193.694 24.912C193.081 24.8009 192.504 24.5452 192.012 24.1664C191.523 23.7847 191.154 23.2721 190.95 22.6892C190.674 21.881 190.548 21.03 190.579 20.1774V0.209473Z" fill="white"/>
<path d="M207 19.3296H200.563V25.7137H207V19.3296Z" fill="#E15353"/>
</g>
<defs>
<clipPath id="clip0">
<rect width="207" height="32" fill="white"/>
</clipPath>
</defs>
</svg>
